<svg xmlns="http://www.w3.org/2000/svg" viewBox="0 0 1083 1024" aria-hidden="true">
  <path
    fill="#FFC000"
    d="M793.585395 198.070305c127.16576-157.153058 170.605303-144.96196 170.605304-144.96196 89.926861 59.939563 39.936354 564.538904 39.936354 564.538904-23.891749 194.812339-229.739133 338.68831-461.930499 338.68831h-9.633769c-232.121302 0-438.003718-143.875971-461.930499-338.68831 0 0-49.955475-504.59934 39.971387-564.538904 0 0 43.439543-12.191098 170.605303 144.96196h512.376419z"
  />
  <path
    fill="#1A1A1A"
    d="M989.06334 15.76435a44.175213 44.175213 0 0 0-12.786639-5.885357c-45.401329-12.681544-113.923706 35.487304-203.885599 143.315461H302.403269C212.476408 45.366297 143.919-2.802551 98.517671 9.878993c-4.554146 1.261148-8.863068 3.257966-12.78664 5.885357-35.557368 23.716589-76.089265 84.076535-73.672064 342.506787 1.261148 134.102074 13.417214 258.570378 14.047787 264.841086 26.063726 212.012997 248.516226 378.099186 506.456031 378.099187h9.633769c257.974836 0 480.462368-166.086189 506.561127-379.150143 0.525478-5.219752 12.716576-129.688056 13.942692-263.79013 2.452232-258.430251-38.079664-318.790197-73.637033-342.506787z m-29.461819 596.417924c-20.563719 167.802752-203.92063 299.277434-417.404967 299.277434h-9.633769c-213.449304 0-396.806215-131.474682-417.299871-298.226478-22.175186-224.274158-16.640148-444.764873 10.439503-507.857306 19.477731 12.296193 57.83765 43.334448 120.649828 120.930084 8.512749 10.509567 21.334421 16.640148 34.856731 16.640148H325.944699v144.191258a44.840819 44.840819 0 1 0 89.681638 0V242.946156h76.93003v144.191258a44.840819 44.840819 0 1 0 89.681637 0V242.946156h76.894999v144.191258a44.875851 44.875851 0 1 0 89.716669 0V242.946156h44.735723c13.522309 0 26.343981-6.130581 34.856731-16.640148 62.707083-77.455508 101.03197-108.528795 120.509701-120.86002 27.184746 63.477784 32.684753 283.61818 10.649694 506.736286z"
  />
</svg>
