<?xml version="1.0" standalone="no"?><!DOCTYPE svg PUBLIC "-//W3C//DTD SVG 1.1//EN" "http://www.w3.org/Graphics/SVG/1.1/DTD/svg11.dtd"><svg t="1771495131455" class="icon" viewBox="0 0 1024 1024" version="1.1" xmlns="http://www.w3.org/2000/svg" p-id="11643" xmlns:xlink="http://www.w3.org/1999/xlink" width="200" height="200"><path d="M514.432 1024c255.8464 0 463.2448-207.3984 463.2448-463.232 0-255.8464-207.3984-463.2448-463.232-463.2448C258.5984 97.536 51.2 304.9216 51.2 560.7552 51.2 816.6144 258.5984 1024 514.432 1024z" fill="#FF9C00" p-id="11644"></path><path d="M514.432 975.232c228.9152 0 414.4768-185.5616 414.4768-414.464 0-228.9152-185.5616-414.4768-414.464-414.4768-228.9152 0-414.4768 185.5616-414.4768 414.464 0 228.9152 185.5616 414.4896 414.464 414.4896z" fill="#01579B" p-id="11645"></path><path d="M758.2464 707.0464c22.3616 71.1168-52.8256 123.008-111.744 123.008-32.2304 0-72.1152-12.288-83.3024-49.8688a841.728 841.728 0 0 0-97.5232 61.4016v36.1216h314.88a414.72 414.72 0 0 0 113.8816-151.6416c-20.8384-7.808-63.3344-19.0208-136.192-19.0208zM820.736 282.112a538.4832 538.4832 0 0 0-196.3136 106.9312c-21.504 65.28-72.9984 137.152-158.7456 196.096v170.6752s68.1728-124.5696 229.5936-162.56a1374.6816 1374.6816 0 0 1 233.6-33.792A412.1856 412.1856 0 0 0 820.736 282.112z" fill="#0277BD" p-id="11646"></path><path d="M780.6592 243.6352a415.8208 415.8208 0 0 0-75.3152-50.5344c-27.136 12.544-61.1072 29.824-93.376 50.7136 15.3344 19.1872 23.3216 44.8512 24.0128 74.112a583.8848 583.8848 0 0 1 144.6784-74.2912z" fill="#0091EA" p-id="11647"></path><path d="M514.432 926.4768c201.984 0 365.7216-163.7376 365.7216-365.7088 0-201.984-163.7376-365.7216-365.7216-365.7216S148.736 358.784 148.736 560.768s163.7248 365.696 365.696 365.696z" fill="#0277BD" p-id="11648"></path><path d="M649.92 221.2864a637.6448 637.6448 0 0 0-37.952 22.528c15.3344 19.1872 23.3216 44.8512 24.0128 74.112a592.3584 592.3584 0 0 1 92.736-53.0944 364.1088 364.1088 0 0 0-78.7968-43.5456z" fill="#00B0FF" p-id="11649"></path><path d="M880.1536 560.768c0-102.1568-41.9584-194.4192-109.4912-260.7616-70.0928 28.7744-120.7808 66.944-146.2656 89.0368-21.4784 65.28-72.96 137.152-158.72 196.096v170.6752s68.1728-124.5696 229.5936-162.56a1387.264 1387.264 0 0 1 184.7552-30.08c0-0.8064 0.128-1.5872 0.128-2.4192z" fill="#0091EA" p-id="11650"></path><path d="M891.6864 828.9536h-157.824v48.768h117.76a462.8736 462.8736 0 0 0 40.064-48.768z m-694.1952 68.992a465.8816 465.8816 0 0 0 48.768 40.064V183.5136a465.8432 465.8432 0 0 0-48.768 40.064v674.368z" fill="#B3831D" p-id="11651"></path><path d="M197.4912 827.5584a417.8304 417.8304 0 0 0 48.768 48.896V245.0432a417.792 417.792 0 0 0-48.768 48.8832v533.632z" fill="#01579B" p-id="11652"></path><path d="M173.1072 0H465.664v877.7088h487.616L831.3856 1024H173.1072l73.1392-97.5232V97.5232L173.1072 0z" fill="#FFC107" p-id="11653"></path><path d="M514.432 828.9536V146.2912c-16.512 0-32.7424 1.2416-48.7552 3.1104v728.32h315.5584a417.664 417.664 0 0 0 48.896-48.768H514.432z" fill="#01579B" p-id="11654"></path><path d="M514.432 546.0096a416.6528 416.6528 0 0 1-48.7552 39.1296v170.6752s15.5008-28.0192 48.768-61.4656V546.0096z" fill="#0277BD" p-id="11655"></path><path d="M465.664 877.7088V0h-48.7552v926.4768h495.744l40.64-48.768H465.6768z" fill="#FF9C00" p-id="11656"></path><path d="M758.2464 707.0464c22.3616 71.1168-52.8256 123.008-111.744 123.008-32.2304 0-72.1152-12.288-83.3024-49.8688a841.728 841.728 0 0 0-97.5232 61.4016v36.1216h230.6944a366.6816 366.6816 0 0 0 149.9392-164.0064c-22.4-3.8016-51.3664-6.656-88.064-6.656z" fill="#0091EA" p-id="11657"></path><path d="M815.5136 844.8c4.7872-5.0176 8.9344-10.6112 13.44-15.8464H660.9664c-4.864 0.6528-9.728 1.1008-14.464 1.1008-5.0944 0-10.368-0.448-15.6928-1.1008h-116.3648V808.576a888.9344 888.9344 0 0 0-48.768 33.0112v36.1216h314.88a427.1616 427.1616 0 0 0 34.5728-32.4992l0.384-0.4096z" fill="#0277BD" p-id="11658"></path></svg>