<svg
  viewBox="0 20 1024 748"
  xmlns="http://www.w3.org/2000/svg"
  fill="currentColor"
  aria-hidden="true"
>
  <path d="M595.77728 768V537.6H429.37728V768H186.17728c-25.6 0-44.8-12.8-44.8-38.4V448c0-6.4 6.4-12.8 6.4-12.8C218.17728 384 288.57728 326.4 352.57728 275.2c44.8-38.4 89.6-70.4 140.8-108.8 6.4 0 6.4-6.4 12.8-6.4 25.6 19.2 57.6 44.8 83.2 64l268.8 211.2c12.8 6.4 12.8 12.8 12.8 25.6v268.8c0 19.2-6.4 32-19.2 38.4h-256z m121.6-633.6V25.6c0-19.2 6.4-25.6 32-25.6h108.8c19.2 0 25.6 6.4 25.6 25.6v224c0 12.8 6.4 19.2 12.8 25.6 38.4 32 76.8 64 115.2 89.6 19.2 12.8 19.2 25.6 6.4 38.4l-32 32c-12.8 12.8-19.2 12.8-38.4 0-140.8-108.8-281.6-217.6-416-332.8-6.4 6.4-12.8 6.4-19.2 0L416.57728 179.2C307.77728 268.8 192.57728 358.4 77.37728 448c-12.8 6.4-25.6 6.4-38.4-6.4-6.4-12.8-19.2-25.6-32-32-12.8-19.2-6.4-25.6 6.4-38.4 64-51.2 128-102.4 192-147.2 83.2-64 166.4-134.4 256-198.4 38.4-32 76.8-32 115.2 0 38.4 32 83.2 70.4 128 102.4 6.4 6.4 6.4 6.4 12.8 6.4z"/>
</svg>

