<svg
  xmlns="http://www.w3.org/2000/svg"
  viewBox="0 0 1024 1024"
  class="icon"
  aria-hidden="true"
  
>
  <path
    d="M428.8 104.533333s-53.333333 93.866667 70.4 183.466667c0 0 166.4 96 145.066667 174.933333 0 0-10.666667-55.466667-134.4-102.4 0 0-110.933333-38.4-121.6-125.866666 0 2.133333-14.933333-83.2 40.533333-130.133334z"
    fill="currentColor"
  />
  <path
    d="M224 104.533333s-83.2 151.466667 134.4 256c0 0 181.333333 64 230.4 108.8 0 0 27.733333 23.466667 32 38.4 0 0-134.4-44.8-215.466667-44.8 0 0-206.933333-27.733333-232.533333-185.6-2.133333 0-14.933333-91.733333 51.2-172.8zM377.6 601.6c93.866667 2.133333 228.266667-59.733333 228.266667-59.733333-134.4 27.733333-270.933333 0-270.933334 0C187.733333 522.666667 85.333333 411.733333 85.333333 411.733333s19.2 44.8 51.2 76.8c0 0 93.866667 121.6 241.066667 113.066667zM426.666667 891.733333s106.666667-53.333333 206.933333-324.266666c0 0 85.333333-209.066667 238.933333-198.4 0 0 110.933333-8.533333 123.733334 6.4 0 0-125.866667 34.133333-172.8 89.6 0 0-61.866667 61.866667-102.4 170.666666 0 0-68.266667 164.266667-147.2 217.6-4.266667 0-78.933333 59.733333-147.2 38.4z"
    fill="currentColor"
  />
  <path
    d="M29.866667 614.4s51.2 164.266667 277.333333 81.066667c0 0 172.8-87.466667 238.933333-91.733334 0 0 36.266667-4.266667 51.2 2.133334 0 0-125.866667 64-181.333333 125.866666 0 0-162.133333 130.133333-294.4 38.4-2.133333 2.133333-76.8-53.333333-91.733333-155.733333z"
    fill="currentColor"
  />
</svg>
