<?xml version="1.0" standalone="no"?><!DOCTYPE svg PUBLIC "-//W3C//DTD SVG 1.1//EN" "http://www.w3.org/Graphics/SVG/1.1/DTD/svg11.dtd"><svg t="1771496358553" class="icon" viewBox="0 0 1024 1024" version="1.1" xmlns="http://www.w3.org/2000/svg" p-id="12837" xmlns:xlink="http://www.w3.org/1999/xlink" width="200" height="200"><path d="M918.922403 85.212721c42.515901-8.756466 89.699505 21.05894 99.034911 63.574841-0.036184 21.276042 4.667703 44.759293-7.092014 63.900495-11.759717 21.710247-33.108127 37.884382-57.242685 43.239576-28.548975 6.983463-60.065018-2.786148-80.508834-23.66417-22.433922-22.180636-31.552226-57.242686-21.239859-87.275194 9.118304-30.502898 36.364664-53.117739 67.048481-59.775548zM183.777244 337.232509c57.315053-5.138092 116.547845 17.476749 155.481555 59.956466 7.851873 8.358445 15.305724 19.575406 27.970035 20.262898 11.144594 1.302615 20.045795-6.513074 26.66742-14.437315 30.575265-36.002827 75.15364-59.70318 122.083958-65.022191 54.528905-6.983463 111.663039 11.180777 152.044099 48.48622 31.624594 28.512792 53.334841 67.772155 60.318304 109.817667 4.05258 22.470106 2.496678 45.410601 2.749965 68.133993 0.180919 51.851307-0.28947 103.702615 0.217102 155.553923 0.542756 36.292297 38.571873 65.854417 73.887208 57.568339 28.40424-5.101908 51.236184-32.094982 50.042121-61.186714-0.072367-89.229117 0-178.458233-0.072368-267.68735-0.217102-20.407633 5.970318-41.285654 19.90106-56.555194 19.575406-23.012862 53.153922-33.03576 82.064735-23.881272 28.548975 8.068975 51.236184 33.650883 55.614417 63.068268 1.483534 12.917597 0.759859 25.979929 0.86841 38.969894-0.036184 83.258799 0 166.553781 0 249.848764 0.57894 50.693428-18.019505 101.061201-50.295406 139.994911-39.259364 48.01583-99.650035 78.15689-161.741343 79.929894-56.772297 2.496678-114.014982-18.308975-155.951944-56.591378-45.193498-40.200141-71.96947-99.650035-73.018798-160.040707-0.28947-55.433498 0.072367-110.866996-0.108551-166.264311 0.904594-32.239717-28.223322-61.295265-60.318304-60.969611-33.252862-2.098657-64.262332 27.463463-63.719576 60.788693 0 100.120424-0.036184 200.277032 0.036184 300.433639 0.542756 28.295689-15.124806 56.338092-39.910672 70.160283-23.845088 14.111661-55.144028 14.075477-78.916749-0.072367-23.627986-13.315618-39.259364-39.548834-39.51265-66.722827-0.253286-101.205936 0.108551-202.448057-0.180919-303.690177 0.325654-31.950247-27.897668-60.897244-59.920283-60.897244-26.016113-1.664452-51.525654 15.595194-60.426855 39.983039-5.427562 13.605088-3.980212 28.548975-4.124947 42.877739 0.144735 85.574558-0.036184 171.112933 0.072368 256.687491-0.036184 17.838587 1.483534 36.473216-5.861767 53.262473-13.1347 33.216678-50.584876 54.565088-85.864028 48.124382-34.555477-5.174276-65.637314-36.364664-64.877456-72.222756 0.217102-118.248481-0.108551-236.496961 0.180919-354.745442 4.884806-90.206078 85.067986-167.349823 174.622756-172.92212z" fill="#74D8F1" p-id="12838"></path></svg>