<svg xmlns="http://www.w3.org/2000/svg" viewBox="0 0 1055 1024" aria-hidden="true">
  <path fill="currentColor" d="M527.94486967 631.98556233q54.532683 0 93.08096-38.508341 38.548277-38.498357 38.548277-92.941183 0-54.532683-38.578229-93.08096-38.568245-38.548277-93.110912-38.548277-54.532683 0-92.961151 38.578229-38.428469 38.568245-38.428469 93.110912 0 54.532683 38.508341 92.961151 38.498357 38.428469 92.941183 38.428469zM527.91491767 700.24626333q-82.867314 0-141.273793-58.40648T328.23464467 500.56599033q0-82.867314 58.40648-141.273794T527.91491767 300.88571633q82.867314 0 141.273794 58.40648T727.59519167 500.56599033q0 82.867314-58.40648 141.273793T527.91491767 700.24626333zM252.42602867 534.58152433H84.55482267v-68.031069h167.871206v68.031069z m718.848985 0H803.40380767v-68.031069h167.871206v68.031069z m-477.37563-309.504424v-167.871206h68.031069v167.871206h-68.031069z m0 718.848985v-167.871206h68.031069v167.871206h-68.031069zM310.02380367 328.82098633l-105.331345-102.575756 48.422467-49.900101 102.056588 105.091728-45.14771 47.384129z m493.689508 494.967463l-104.05339-105.331345L746.56481767 671.55220833l104.572559 103.094925-47.424065 49.141316zM698.90113667 281.91609033l103.334541-104.572559 49.900101 47.424065-104.093327 104.05339L698.90113667 281.91609033z m-494.208678 493.449892l104.332943-104.05339L356.92869967 719.21588933 253.83377467 823.78844933l-49.141316-48.422467zM527.91491767 500.56599033z"/>
</svg>
