<svg xmlns="http://www.w3.org/2000/svg" width="2048" height="2048" viewBox="0 0 2048 2048">
  <g fill="currentColor" fill-rule="evenodd" stroke="none">
    <path d="M 820 1171 L 775 1202 L 709 1258 L 664 1302 L 645 1326 L 647 1358 L 660 1393 L 714 1499 L 746 1550 L 804 1509 L 863 1458 L 906 1416 L 921 1397 L 926 1385 L 915 1347 L 897 1307 L 861 1238 Z" />
    <path d="M 310 1032 L 299 1038 L 299 1046 L 312 1122 L 317 1122 L 326 1118 L 322 1093 L 338 1084 L 342 1084 L 357 1099 L 363 1098 L 371 1093 L 371 1091 L 314 1032 Z" />
    <path d="M 1762 401 L 1747 538 L 1718 676 L 1682 790 L 1641 877 L 1642 884 L 1634 890 L 1641 904 L 1647 905 L 1653 914 L 1654 903 L 1659 899 L 1668 908 L 1668 897 L 1674 892 L 1684 894 L 1688 889 L 1689 894 L 1696 894 L 1701 889 L 1702 882 L 1697 878 L 1702 875 L 1700 863 L 1710 858 L 1710 854 L 1703 853 L 1709 847 L 1717 857 L 1712 869 L 1739 869 L 1749 878 L 1757 868 L 1769 872 L 1773 866 L 1799 869 L 1805 862 L 1821 860 L 1859 866 L 1865 878 L 1873 874 L 1861 834 L 1837 785 L 1793 634 L 1774 535 Z" />
    <path d="M 1461 192 L 1418 189 L 1390 232 L 1306 588 L 1150 540 L 1084 218 L 1023 162 L 955 262 L 890 547 L 656 606 L 506 697 L 485 766 L 517 902 L 250 1042 L 257 1059 L 275 1025 L 571 893 L 650 1044 L 633 1105 L 450 1031 L 381 1251 L 410 1339 L 486 1368 L 434 1411 L 284 1108 L 443 1466 L 280 1478 L 278 1528 L 363 1608 L 549 1692 L 760 1654 L 891 1674 L 919 1632 L 1580 1614 L 1639 1590 L 1704 1511 L 1790 1351 L 1774 1295 L 1691 1288 L 1535 1331 L 1604 970 L 1404 1028 L 1555 568 L 1533 366 Z M 553 1330 L 554 1349 L 552 1351 L 541 1350 L 538 1345 L 549 1332 Z M 418 1330 L 421 1329 L 438 1344 L 452 1351 L 472 1354 L 486 1354 L 505 1349 L 506 1352 L 494 1357 L 479 1360 L 463 1359 L 450 1355 L 436 1348 L 421 1336 Z M 1116 1314 L 1116 1319 L 1114 1321 L 1099 1327 L 1074 1330 L 1026 1347 L 1023 1347 L 1006 1333 L 1006 1330 L 1011 1327 L 1050 1320 L 1107 1304 L 1112 1305 Z M 1174 1288 L 1177 1288 L 1215 1322 L 1237 1339 L 1239 1346 L 1238 1368 L 1231 1369 L 1217 1356 L 1194 1342 L 1178 1328 L 1170 1313 L 1170 1302 L 1173 1297 Z M 1348 1299 L 1364 1287 L 1368 1287 L 1379 1291 L 1380 1294 L 1385 1293 L 1395 1297 L 1396 1301 L 1400 1301 L 1401 1303 L 1408 1301 L 1419 1304 L 1420 1306 L 1425 1305 L 1453 1308 L 1485 1322 L 1489 1326 L 1489 1330 L 1485 1339 L 1479 1337 L 1458 1337 L 1455 1334 L 1448 1334 L 1444 1331 L 1436 1331 L 1435 1328 L 1429 1329 L 1423 1327 L 1420 1323 L 1404 1321 L 1350 1303 Z M 569 1275 L 584 1283 L 583 1288 L 578 1289 L 577 1293 L 574 1292 L 568 1279 Z M 1320 1253 L 1321 1257 L 1302 1280 L 1295 1287 L 1293 1287 L 1292 1284 L 1294 1283 L 1295 1279 L 1298 1279 L 1300 1272 L 1318 1253 Z M 494 1258 L 493 1261 L 482 1266 L 458 1284 L 439 1303 L 437 1303 L 425 1289 L 417 1273 L 417 1269 L 422 1266 L 469 1255 L 489 1253 Z M 610 1232 L 609 1240 L 606 1242 L 594 1242 L 593 1240 L 590 1242 L 587 1241 L 587 1238 L 592 1235 L 604 1231 Z M 395 1230 L 398 1231 L 396 1241 L 397 1272 L 401 1286 L 403 1286 L 403 1279 L 407 1279 L 408 1289 L 412 1301 L 411 1304 L 408 1304 L 411 1314 L 410 1317 L 407 1316 L 402 1306 L 393 1280 L 391 1254 Z M 1468 1227 L 1470 1225 L 1486 1223 L 1502 1223 L 1505 1225 L 1507 1230 L 1501 1241 L 1497 1245 L 1491 1246 L 1475 1236 L 1468 1229 Z M 418 1230 L 423 1224 L 430 1221 L 458 1221 L 482 1227 L 485 1242 L 464 1243 L 433 1249 L 420 1249 L 418 1246 Z M 410 1189 L 412 1194 L 410 1213 L 406 1214 L 400 1225 L 397 1226 L 396 1222 L 407 1190 Z M 619 1178 L 620 1184 L 615 1208 L 611 1211 L 585 1219 L 584 1212 L 585 1202 L 600 1188 Z M 428 1148 L 429 1161 L 433 1169 L 433 1177 L 428 1178 L 417 1176 L 417 1180 L 414 1181 L 413 1178 L 415 1177 L 419 1162 L 425 1149 Z M 1013 1131 L 1016 1130 L 1058 1147 L 1059 1155 L 1046 1155 L 1013 1147 L 1011 1145 Z M 629 1124 L 629 1128 L 624 1128 L 624 1130 L 630 1133 L 626 1153 L 597 1172 L 579 1190 L 569 1186 L 569 1178 L 573 1175 L 573 1172 L 576 1170 L 593 1144 L 602 1135 L 620 1123 Z M 439 1114 L 442 1115 L 441 1132 L 444 1133 L 443 1141 L 453 1141 L 452 1144 L 447 1145 L 440 1152 L 437 1151 L 435 1134 L 432 1133 Z M 568 1119 L 570 1133 L 563 1182 L 559 1183 L 574 1213 L 559 1208 L 567 1218 L 553 1216 L 566 1237 L 568 1260 L 565 1261 L 547 1249 L 542 1293 L 533 1311 L 516 1327 L 504 1334 L 486 1339 L 466 1341 L 455 1337 L 439 1322 L 487 1280 L 523 1263 L 521 1258 L 523 1238 L 520 1225 L 511 1250 L 507 1252 L 500 1246 L 496 1206 L 480 1209 L 459 1196 L 460 1188 L 444 1167 L 445 1156 L 454 1148 L 460 1149 L 478 1161 L 501 1183 L 502 1177 L 505 1176 L 514 1186 L 530 1185 L 528 1142 L 534 1116 L 538 1112 L 544 1112 L 556 1117 L 560 1126 L 565 1119 Z M 1154 1109 L 1161 1106 L 1179 1105 L 1197 1110 L 1199 1112 L 1200 1141 L 1197 1142 L 1171 1122 L 1156 1113 Z M 1320 1106 L 1320 1109 L 1298 1132 L 1264 1175 L 1253 1172 L 1249 1169 L 1251 1128 L 1256 1122 L 1270 1111 L 1285 1104 L 1294 1102 L 1310 1102 Z M 590 1108 L 596 1106 L 595 1101 L 598 1100 L 622 1111 L 628 1115 L 629 1118 L 620 1120 L 610 1119 L 591 1112 Z M 462 1084 L 463 1089 L 460 1104 L 454 1111 L 452 1111 L 452 1102 L 459 1085 Z M 1544 1079 L 1545 1085 L 1538 1099 L 1530 1109 L 1512 1140 L 1510 1147 L 1508 1148 L 1506 1159 L 1500 1161 L 1498 1170 L 1491 1176 L 1491 1180 L 1487 1182 L 1486 1187 L 1476 1196 L 1471 1204 L 1466 1205 L 1466 1207 L 1458 1214 L 1452 1216 L 1432 1217 L 1432 1208 L 1446 1173 L 1445 1167 L 1448 1164 L 1450 1135 L 1448 1124 L 1451 1121 L 1479 1109 L 1538 1079 Z M 1132 1058 L 1142 1072 L 1151 1080 L 1151 1082 L 1129 1094 L 1116 1106 L 1107 1123 L 1102 1142 L 1094 1142 L 1091 1133 L 1075 1119 L 1075 1109 L 1081 1099 L 1112 1066 L 1126 1058 Z M 1532 1054 L 1529 1074 L 1484 1096 L 1444 1113 L 1399 1138 L 1395 1137 L 1392 1118 L 1422 1098 L 1451 1082 L 1492 1063 L 1525 1052 Z M 1322 1049 L 1320 1065 L 1318 1066 L 1315 1074 L 1299 1074 L 1276 1084 L 1273 1083 L 1277 1076 L 1277 1071 L 1270 1059 L 1272 1055 L 1298 1044 L 1311 1045 Z M 445 1093 L 453 1067 L 456 1044 L 459 1043 L 494 1063 L 536 1079 L 580 1093 L 581 1096 L 578 1097 L 560 1093 L 496 1069 L 465 1052 L 459 1053 L 458 1065 L 455 1071 L 450 1097 L 446 1098 Z M 899 1043 L 904 1042 L 921 1045 L 965 1058 L 1010 1076 L 1010 1079 L 991 1081 L 982 1085 L 969 1085 L 940 1079 L 939 1077 L 934 1077 L 931 1074 L 926 1073 L 922 1068 L 920 1068 L 899 1047 Z M 668 1043 L 695 1043 L 990 1101 L 1002 1112 L 977 1278 L 980 1283 L 987 1276 L 1016 1278 L 1023 1295 L 1003 1323 L 978 1328 L 968 1315 L 910 1640 L 889 1666 L 576 1608 L 556 1592 L 653 1065 Z M 1568 1001 L 1565 1011 L 1561 1012 L 1559 1015 L 1530 1024 L 1488 1041 L 1432 1066 L 1418 1074 L 1413 1073 L 1414 1066 L 1428 1056 L 1488 1024 L 1538 1004 L 1554 1001 Z M 1443 205 L 1456 215 L 1474 251 L 1510 372 L 1531 480 L 1531 594 L 1506 689 L 1456 837 L 1362 1058 L 1317 1037 L 1293 1037 L 1260 1049 L 1278 892 L 1350 479 L 1407 244 L 1417 223 Z M 1026 185 L 1037 188 L 1060 218 L 1089 331 L 1124 528 L 1191 1049 L 1131 1047 L 1097 1070 L 976 837 L 935 719 L 912 616 L 916 521 L 952 339 L 992 226 Z" />
    <path d="M 402 0 L 394 0 L 381 93 L 353 184 L 320 251 L 278 311 L 222 367 L 160 409 L 111 430 L 29 445 L 148 478 L 240 542 L 292 600 L 327 654 L 357 717 L 380 793 L 402 791 L 403 778 L 411 787 L 418 784 L 452 686 L 478 640 L 560 539 L 658 474 L 770 447 L 700 434 L 631 406 L 573 365 L 519 311 L 475 247 L 443 181 L 415 88 Z M 398 225 L 412 311 L 419 313 L 434 332 L 441 350 L 469 388 L 481 389 L 486 398 L 516 411 L 521 419 L 541 423 L 554 439 L 599 445 L 543 457 L 545 466 L 536 467 L 514 485 L 504 485 L 491 496 L 484 496 L 479 507 L 460 521 L 440 564 L 433 598 L 416 617 L 418 633 L 404 631 L 400 670 L 394 628 L 388 627 L 385 632 L 372 618 L 372 607 L 360 600 L 363 591 L 355 584 L 355 559 L 350 558 L 339 532 L 341 527 L 333 524 L 328 512 L 296 489 L 274 482 L 254 467 L 246 453 L 198 447 L 237 440 L 249 428 L 262 426 L 268 417 L 274 420 L 276 415 L 307 406 L 336 382 L 357 353 L 367 322 L 389 301 Z" />
  </g>
</svg>
